<svg xmlns="http://www.w3.org/2000/svg" xmlns:xlink="http://www.w3.org/1999/xlink" width="1190.667" height="234.667" viewBox="0 0 893 176" xmlns:v="https://vecta.io/nano"><style><![CDATA[.B{fill-rule:evenodd}.C{fill:#adb9ca}]]></style><g fill="#67552c"><path d="M106.137 136.527h110.199v29.914H106.137z"/><g class="B"><path d="M94.539 137.949l66.695-10.316 66.696 10.316zm0 0"/><path d="M195.383 154.68c0-11.774 9.523-21.321 21.273-21.321s21.274 9.547 21.274 21.321S228.402 176 216.656 176s-21.273-9.547-21.273-21.32zm-110.84-.285c0-11.774 9.523-21.321 21.273-21.321s21.27 9.547 21.27 21.321-9.524 21.32-21.27 21.32-21.273-9.543-21.273-21.32zm0 0"/></g><path d="M669.75 136.527h110.199v29.914H669.75z"/><g class="B"><path d="M658.156 137.949l66.696-10.316 66.691 10.316zm0 0"/><path d="M758.996 154.68c0-11.774 9.524-21.321 21.274-21.321s21.273 9.547 21.273 21.321S792.02 176 780.27 176s-21.274-9.547-21.274-21.32zm-110.84-.285c0-11.774 9.524-21.321 21.274-21.321s21.273 9.547 21.273 21.321-9.523 21.32-21.273 21.32-21.274-9.543-21.274-21.32zm0 0"/></g></g><path d="M886.395 126.145c1.914 15.75-3.184 20.964-11.465 28.097h-6.055c-5.414-10.75-13.699-19.582-29.625-24.586zm0 0" fill="#777" class="B"/><g fill="#fbda20" class="B"><path d="M263.609 0v130.875h625.192c1.496-13.789 5.004-33.617.472-53.445-4.5-14.387-21.207-18.121-29.464-24.16C844.406 34.363 821.375 1.777 784.805.246zm0 0"/><path d="M885.254 65.492c0-1.933-1.563-3.5-3.488-3.5h-12.442c-1.926 0-3.488 1.567-3.488 3.5v4.414c0 1.93 1.562 3.496 3.488 3.496h12.442c1.925 0 3.488-1.566 3.488-3.496zm0 0"/></g><path d="M893 101.68a1.67 1.67 0 0 0-1.672-1.672h-13.773a1.67 1.67 0 0 0-1.672 1.672v10.976c0 .926.75 1.676 1.672 1.676h13.773c.922 0 1.672-.75 1.672-1.676zM263.609 0v28.617h561.2c2.726.102 5.449-.758 7.855-2.176l2.274-1.699-4.696-4.5C817.988 9.539 803.09 1.012 784.805.246zM688.57 39.59h-45.679a2.93 2.93 0 0 0-2.93 2.93v85.304c0 1.621 1.312 2.934 2.93 2.934h45.679a2.93 2.93 0 0 0 2.926-2.934V42.52c0-1.618-1.308-2.93-2.926-2.93zm0 0" fill="#777" class="B"/><path d="M660.535 50.172c0-1.188-.961-2.149-2.14-2.149h-9.684c-1.184 0-2.141.961-2.141 2.149v33.125c0 1.183.957 2.144 2.141 2.144h9.684c1.179 0 2.14-.961 2.14-2.144zm24.539 0c0-1.188-.957-2.149-2.14-2.149h-9.684c-1.184 0-2.141.961-2.141 2.149v33.125c0 1.183.957 2.144 2.141 2.144h9.684c1.183 0 2.14-.961 2.14-2.144zm84.824.781c0-3.808-3.082-6.898-6.882-6.898h-36.399a6.89 6.89 0 0 0-6.879 6.898v27.59c0 3.812 3.078 6.898 6.879 6.898h36.399a6.89 6.89 0 0 0 6.882-6.898zm-158.175 0a6.89 6.89 0 0 0-6.879-6.898h-36.399c-3.8 0-6.883 3.09-6.883 6.898v27.59c0 3.812 3.083 6.898 6.883 6.898h36.399c3.801 0 6.879-3.086 6.879-6.898zm-69.918 0c0-3.808-3.082-6.898-6.883-6.898h-36.399c-3.8 0-6.882 3.09-6.882 6.898v27.59a6.89 6.89 0 0 0 6.882 6.898h36.399a6.89 6.89 0 0 0 6.883-6.898zm-69.922 0c0-3.808-3.082-6.898-6.883-6.898h-36.398c-3.801 0-6.883 3.09-6.883 6.898v27.59a6.89 6.89 0 0 0 6.883 6.898H465a6.89 6.89 0 0 0 6.883-6.898zm-69.922 0c0-3.808-3.082-6.898-6.883-6.898h-36.394c-3.801 0-6.883 3.09-6.883 6.898v27.59a6.89 6.89 0 0 0 6.883 6.898h36.394a6.89 6.89 0 0 0 6.883-6.898zm-69.918 0c0-3.808-3.082-6.898-6.883-6.898h-36.398c-3.801 0-6.883 3.09-6.883 6.898v27.59a6.89 6.89 0 0 0 6.883 6.898h36.398a6.89 6.89 0 0 0 6.883-6.898zm468.332-4.051c0-1.125-.91-2.039-2.031-2.039h-8.141c-1.125 0-2.035.914-2.035 2.039v19.481c0 1.125.91 2.039 2.035 2.039h8.141c1.121 0 2.031-.914 2.031-2.039zm37.277-19.558l-1.48 1.148c-1.133.879-2.438 1.676-4.418 2.129l9.512 16.348c3.824 2.211 7.265 1.551 9.894-1.121l1.238-1.754-5.664-6.871c-2.449-2.868-5.039-5.778-7.785-8.637zm0 0" class="C B"/><path d="M428.52 122.211h49.184v39.375H428.52zm55.742.437h49.188v39.379h-49.188z" fill="#67552c"/><g class="B"><path d="M6.605 126.145c-1.914 15.75 3.184 20.964 11.465 28.097h6.055c5.414-10.75 13.695-19.582 29.625-24.586zm0 0" fill="#777"/><g fill="#fbda20"><path d="M629.391 0v130.875H4.199C2.703 117.086-.805 97.258 3.727 77.43c4.5-14.387 21.207-18.121 29.464-24.16C48.594 34.363 71.625 1.777 108.195.246zm0 0"/><path d="M7.746 65.492c0-1.933 1.563-3.5 3.488-3.5h12.442c1.926 0 3.488 1.567 3.488 3.5v4.414c0 1.93-1.562 3.496-3.488 3.496H11.234c-1.925 0-3.488-1.566-3.488-3.496zm0 0"/></g><path d="M0 101.68a1.67 1.67 0 0 1 1.672-1.672h13.773a1.67 1.67 0 0 1 1.672 1.672v10.976c0 .926-.75 1.676-1.672 1.676H1.672c-.922 0-1.672-.75-1.672-1.676zM629.391 0v28.617h-561.2c-2.726.102-5.449-.758-7.855-2.176l-2.274-1.699 4.696-4.5C75.012 9.539 89.91 1.012 108.195.246zM204.43 39.59h45.679a2.93 2.93 0 0 1 2.93 2.93v85.304c0 1.621-1.312 2.934-2.93 2.934H204.43a2.93 2.93 0 0 1-2.926-2.934V42.52c0-1.618 1.308-2.93 2.926-2.93zm0 0" fill="#777"/><g class="C"><use xlink:href="#B"/><use xlink:href="#B" x="-24.539"/><path d="M123.102 50.953c0-3.808 3.082-6.898 6.882-6.898h36.399a6.89 6.89 0 0 1 6.879 6.898v27.59c0 3.812-3.078 6.898-6.879 6.898h-36.399a6.89 6.89 0 0 1-6.882-6.898zm0 0"/></g><g fill="#2e8ddb"><path d="M519.508 125.215l45.406-92.004h60.453l-45.402 92.004zm-146.383 0l45.402-92.004h60.457l-45.406 92.004zm0 0"/><path d="M446.316 125.215l45.407-92.004h60.453l-45.406 92.004zm0 0"/></g><path d="M281.277 50.953a6.89 6.89 0 0 1 6.879-6.898h36.399c3.8 0 6.883 3.09 6.883 6.898v27.59c0 3.812-3.083 6.898-6.883 6.898h-36.399c-3.801 0-6.879-3.086-6.879-6.898zm69.918 0c0-3.808 3.082-6.898 6.883-6.898h36.399c3.8 0 6.882 3.09 6.882 6.898v27.59a6.89 6.89 0 0 1-6.882 6.898h-36.399a6.89 6.89 0 0 1-6.883-6.898zm69.922 0c0-3.808 3.082-6.898 6.883-6.898h36.398c3.801 0 6.883 3.09 6.883 6.898v27.59a6.89 6.89 0 0 1-6.883 6.898H428a6.89 6.89 0 0 1-6.883-6.898zm69.922 0c0-3.808 3.082-6.898 6.883-6.898h36.394c3.801 0 6.883 3.09 6.883 6.898v27.59a6.89 6.89 0 0 1-6.883 6.898h-36.394a6.89 6.89 0 0 1-6.883-6.898zm69.918 0c0-3.808 3.082-6.898 6.883-6.898h36.398c3.801 0 6.883 3.09 6.883 6.898v27.59a6.89 6.89 0 0 1-6.883 6.898H567.84a6.89 6.89 0 0 1-6.883-6.898zM92.625 46.902c0-1.125.91-2.039 2.031-2.039h8.141c1.125 0 2.035.914 2.035 2.039v19.481c0 1.125-.91 2.039-2.035 2.039h-8.141c-1.121 0-2.031-.914-2.031-2.039zM55.348 27.344l1.48 1.148c1.133.879 2.438 1.676 4.418 2.129l-9.512 16.348c-3.824 2.211-7.265 1.551-9.894-1.121l-1.238-1.754 5.664-6.871c2.449-2.868 5.039-5.778 7.785-8.637zm0 0" class="C"/><path d="M445.297 81.758h18.965v8.64h-18.965zm-53.309-7.672c-2.113 0-3.82.73-5.113 2.191s-2.016 3.61-2.164 6.453h13.996c0-2.769-.566-4.902-1.695-6.398s-2.809-2.246-5.024-2.246zm47.539-6.66h1.231v10.179l-1.793-.152h-1.117c-2.813 0-5.059.688-6.739 2.059s-2.519 3.828-2.519 7.371v19.457h-11.313V76.93l-.039-1.348-.109-2.504-.168-2.883-.207-2.695h10.601l.262 7.336.223-.449c.972-2.344 2.441-4.09 4.406-5.239s4.395-1.722 7.281-1.722zm-117.121-.86c2.934 0 5.41.668 7.426 2s3.422 2.965 4.219 4.883 1.195 5.578 1.195 10.965v21.926h-11.535V81.344c0-2.043-.559-3.653-1.68-4.824s-2.574-1.758-4.367-1.758c-2.34 0-4.148.758-5.434 2.281s-1.921 3.629-1.921 6.324v22.973h-11.387V73.227l-.055-2.321a127.82 127.82 0 0 0-.168-3.406h10.863l.301 5.801c1.317-2.27 3.039-3.961 5.168-5.071s4.586-1.664 7.375-1.664zm69.957-.222c3.457 0 6.477.734 9.051 2.207s4.703 3.758 6.383 6.863 2.519 7.102 2.519 11.992v1.309l-.074 1.16h-25.906c0 3.668.684 6.305 2.055 7.914s3.308 2.414 5.824 2.414c3.558 0 5.797-1.785 6.719-5.351h10.3c-.347 4.14-1.988 7.332-4.925 9.578s-6.993 3.367-12.172 3.367c-6.02 0-10.637-1.664-13.848-4.996s-4.816-8.313-4.816-14.946c0-6.585 1.656-11.781 4.965-15.582s7.953-5.781 13.925-5.929zm-32.984-10.18v11.711h9.18v7.52h-9.18v17.55c0 2.493.391 4.059 1.176 4.696.781.632 2.121.953 4.011.953h.934l.82-.039a5.72 5.72 0 0 0 .895-.075l1.086-.113v7.445c-1.821.477-3.5.793-5.043.958s-2.785.242-3.731.242c-3.933 0-6.812-.813-8.644-2.434s-2.742-4.176-2.742-7.668V75.395h-7.43v-7.52h7.43v-7.594zm211.512-5.238h36.996v9.054h-25.16v13.172h23.554v9.055h-23.554v14.926h25.98v9.207h-37.816zm-51.418 0h44.797v9.207h-16.461v46.207h-11.911V60.133h-16.425zm-242.098-.149h11.836v55.563h-11.836zm218.289-.148c5.848 0 10.719 1.652 14.613 4.957s5.868 7.789 5.918 13.449h-12.058c-.325-3.191-1.231-5.613-2.723-7.258s-3.574-2.468-6.234-2.468c-4.008 0-7.09 1.859-9.242 5.574s-3.227 8.719-3.227 15.004c0 6.261.988 10.992 2.969 14.199s4.871 4.805 8.675 4.805c2.864 0 5.223-.989 7.075-2.973s2.781-4.484 2.781-7.5h12.469c0 5.734-1.973 10.375-5.914 13.918-3.946 3.539-9.043 5.312-15.289 5.312-7.938 0-14.11-2.464-18.516-7.39s-6.606-11.742-6.606-20.446c0-8.679 2.274-15.714 6.829-21.101s10.714-8.082 18.48-8.082zm0 0"/></g><defs ><path id="B" d="M232.465 50.172c0-1.188.957-2.149 2.14-2.149h9.684c1.184 0 2.141.961 2.141 2.149v33.125c0 1.183-.957 2.144-2.141 2.144h-9.684c-1.183 0-2.14-.961-2.14-2.144zm0 0"/></defs></svg>